<svg width="202.9167236328125px" height="122px" xmlns="http://www.w3.org/2000/svg" viewBox="148.54163818359376 14 202.9167236328125 122" style="background:#596886" preserveAspectRatio="xMidYMid"><defs><filter id="editing-hover" x="-100%" y="-100%" width="300%" height="300%"><feFlood flood-color="#052b4a" result="flood"></feFlood><feComposite operator="in" in2="SourceAlpha" in="flood" result="shadow"></feComposite><feOffset dx="-4" dy="-4" in="SourceGraphic" result="offset-1"></feOffset><feOffset dx="4" dy="4" in="shadow" result="offset-2"></feOffset><feMerge><feMergeNode in="offset-2"></feMergeNode><feMergeNode in="offset-1"></feMergeNode></feMerge></filter></defs><g filter="url(#editing-hover)"><g transform="translate(185.69786643981934, 98.68000030517578)"><path d="M29.18 1.28L29.18 1.28L29.18 1.28Q20.99 1.28 20.22-10.37L20.22-10.37L9.22-10.37L9.22-10.37Q7.94-7.42 7.04-4.86L7.04-4.86L5.38 0L-3.58 0L16.58-42.24L30.34-42.24L33.02-11.14L33.02-11.14Q33.66-4.42 36.22-2.43L36.22-2.43L36.22-2.43Q34.37 1.28 29.18 1.28ZM14.72-23.17L11.20-15.04L20.03-15.04L19.26-31.49L19.26-33.22L14.72-23.17ZM48.45 0.19L48.45 0.19L48.45 0.19Q46.40 1.28 43.58 1.28L43.58 1.28L43.58 1.28Q40.77 1.28 39.23-0.16L39.23-0.16L39.23-0.16Q37.70-1.60 37.70-4.38L37.70-4.38L37.70-4.38Q37.70-7.17 39.65-9.89L39.65-9.89L39.65-9.89Q41.60-12.61 44.51-14.14L44.51-14.14L44.51-14.14Q47.42-15.68 49.47-16.58L49.47-16.58L45.44-25.86L45.44-25.86Q44.35-28.22 42.30-28.22L42.30-28.22L41.79-28.16L41.60-28.16L41.60-28.16Q41.98-30.40 44.61-32.13L44.61-32.13L44.61-32.13Q47.23-33.92 50.24-33.92L50.24-33.92L50.24-33.92Q55.10-33.92 57.34-29.06L57.34-29.06L57.86-28.03L60.61-21.25L60.61-21.25Q62.34-22.02 63.07-23.46L63.07-23.46L63.07-23.46Q63.81-24.90 63.81-27.74L63.81-27.74L63.81-27.74Q63.81-30.59 62.27-32.38L62.27-32.38L62.27-32.38Q64.70-33.92 67.90-33.92L67.90-33.92L67.90-33.92Q73.66-33.92 73.66-28.35L73.66-28.35L73.66-28.35Q73.66-22.27 66.05-18.75L66.05-18.75L62.21-16.96L65.66-8.06L65.66-8.06Q66.69-5.38 68.54-4.22L68.54-4.22L68.54-4.22Q69.31-3.71 70.21-3.65L70.21-3.65L70.21-3.65Q68.29-0.51 64.13 0.90L64.13 0.90L64.13 0.90Q62.85 1.28 61.12 1.28L61.12 1.28L61.12 1.28Q59.39 1.28 57.41 0.10L57.41 0.10L57.41 0.10Q55.42-1.09 54.72-2.94L54.72-2.94L51.20-12.10L51.20-12.10Q47.62-10.50 47.62-4.67L47.62-4.67L47.62-4.67Q47.62-1.98 48.45 0.19ZM100.99-10.82L100.99-10.82L100.99-10.82Q102.59-9.73 102.59-7.33L102.59-7.33L102.59-7.33Q102.59-4.93 101.38-3.39L101.38-3.39L101.38-3.39Q100.16-1.86 98.18-0.83L98.18-0.83L98.18-0.83Q94.08 1.28 89.66 1.28L89.66 1.28L89.66 1.28Q85.25 1.28 82.66 0.32L82.66 0.32L82.66 0.32Q80.06-0.64 78.34-2.43L78.34-2.43L78.34-2.43Q74.94-5.82 74.94-12.03L74.94-12.03L74.94-12.03Q74.94-21.70 80.19-27.58L80.19-27.58L80.19-27.58Q85.82-33.92 95.62-33.92L95.62-33.92L95.62-33.92Q101.70-33.92 104.70-31.36L104.70-31.36L104.70-31.36Q106.94-29.44 106.94-26.30L106.94-26.30L106.94-26.30Q106.94-15.04 87.49-15.04L87.49-15.04L87.49-15.04Q87.23-13.38 87.23-11.97L87.23-11.97L87.23-11.97Q87.23-9.02 88.54-7.90L88.54-7.90L88.54-7.90Q89.86-6.78 92.29-6.78L92.29-6.78L92.29-6.78Q94.72-6.78 97.31-7.90L97.31-7.90L97.31-7.90Q99.90-9.02 100.99-10.82ZM87.94-17.79L87.94-17.79L87.94-17.79Q92.48-17.79 95.10-20.61L95.10-20.61L95.10-20.61Q97.73-23.30 97.73-27.58L97.73-27.58L97.73-27.58Q97.73-29.06 97.18-29.86L97.18-29.86L97.18-29.86Q96.64-30.66 95.55-30.66L95.55-30.66L95.55-30.66Q94.46-30.66 93.54-30.24L93.54-30.24L93.54-30.24Q92.61-29.82 91.65-28.42L91.65-28.42L91.65-28.42Q89.28-25.22 87.94-17.79ZM124.42-3.52L124.42-3.52L124.42-3.52Q122.43 1.28 116.10 1.28L116.10 1.28L116.10 1.28Q112.90 1.28 110.85-0.96L110.85-0.96L110.85-0.96Q109.18-2.82 109.18-4.93L109.18-4.93L109.18-4.93Q109.18-9.73 111.42-20.22L111.42-20.22L116.10-44.80L129.09-46.08L122.88-13.70L122.88-13.70Q121.79-8.96 121.79-7.30L121.79-7.30L121.79-7.30Q121.79-3.65 124.42-3.52Z" fill="#ffd5af"></path></g></g><style>text {
  font-size: 64px;
  font-family: Arial Black;
  dominant-baseline: central;
  text-anchor: middle;
}</style></svg>