<?xml version="1.0" standalone="no"?>
<!DOCTYPE svg PUBLIC "-//W3C//DTD SVG 20010904//EN"
 "http://www.w3.org/TR/2001/REC-SVG-20010904/DTD/svg10.dtd">
<svg version="1.0" xmlns="http://www.w3.org/2000/svg"
 width="256.000000pt" height="256.000000pt" viewBox="0 0 256.000000 256.000000"
 preserveAspectRatio="xMidYMid meet">

<g transform="translate(0.000000,256.000000) scale(0.100000,-0.100000)"
fill="#000000" stroke="none">
<path d="M1195 2399 c-159 -12 -277 -45 -425 -119 -312 -157 -544 -471 -589
-795 -24 -168 -6 -353 50 -519 104 -310 344 -566 641 -685 152 -61 235 -76
423 -75 151 1 181 4 269 27 332 89 602 315 751 630 78 163 107 339 86 522 -39
350 -191 605 -491 827 -55 41 -207 114 -295 141 -134 42 -272 57 -420 46z
m355 -224 c324 -105 551 -346 641 -681 32 -115 32 -309 1 -417 -68 -238 -220
-400 -457 -486 -44 -16 -99 -32 -121 -36 -41 -6 -42 -7 -59 -68 -20 -72 -46
-104 -89 -112 -27 -5 -367 85 -738 195 -104 31 -128 79 -94 190 l13 45 -61 65
c-108 115 -165 218 -202 361 -25 97 -16 269 20 374 84 248 295 456 556 550
133 48 183 55 350 51 137 -3 165 -6 240 -31z"/>
<path d="M1076 1595 c-32 -33 -29 -53 25 -152 32 -56 63 -100 76 -106 30 -14
69 4 85 39 11 23 8 34 -26 98 -59 109 -82 136 -116 136 -16 0 -35 -7 -44 -15z"/>
<path d="M767 1516 c-92 -33 -164 -109 -188 -201 -15 -55 -6 -152 19 -201 25
-49 91 -110 141 -131 61 -27 147 -22 213 10 103 51 162 143 162 258 1 186
-181 324 -347 265z"/>
<path d="M1460 1436 c-107 -60 -126 -85 -97 -130 28 -42 57 -42 134 0 107 59
133 81 133 114 0 28 -38 70 -64 70 -6 0 -54 -24 -106 -54z"/>
<path d="M1579 1284 c-60 -18 -133 -83 -166 -148 -56 -107 -28 -255 63 -335
43 -38 124 -71 173 -71 102 0 223 87 260 186 42 112 16 228 -68 307 -75 70
-165 91 -262 61z"/>
<path d="M1175 1002 c-121 -109 -157 -144 -153 -148 9 -9 250 -75 255 -70 6 5
-44 221 -56 243 -4 7 -20 -1 -46 -25z"/>
<path d="M2214 613 c-47 -75 -174 -213 -259 -282 -35 -29 -36 -30 -5 -9 91 60
241 225 300 329 36 65 16 43 -36 -38z"/>
<path d="M1854 264 c-18 -14 -18 -15 4 -4 12 6 22 13 22 15 0 8 -5 6 -26 -11z"/>
<path d="M1780 225 c-14 -8 -20 -14 -14 -15 5 0 19 7 30 15 24 18 16 19 -16 0z"/>
<path d="M1700 190 c-8 -5 -10 -10 -5 -10 6 0 17 5 25 10 8 5 11 10 5 10 -5 0
-17 -5 -25 -10z"/>
<path d="M1578 143 c7 -3 16 -2 19 1 4 3 -2 6 -13 5 -11 0 -14 -3 -6 -6z"/>
<path d="M1498 123 c7 -3 16 -2 19 1 4 3 -2 6 -13 5 -11 0 -14 -3 -6 -6z"/>
<path d="M1438 113 c6 -2 18 -2 25 0 6 3 1 5 -13 5 -14 0 -19 -2 -12 -5z"/>
<path d="M1348 103 c12 -2 30 -2 40 0 9 3 -1 5 -23 4 -22 0 -30 -2 -17 -4z"/>
</g>
</svg>
